<svg width="32" height="32" viewBox="0 0 32 32" fill="none" xmlns="http://www.w3.org/2000/svg">
<rect x="0.5" y="0.5" width="31" height="31" rx="7.5" fill="#F3F5FA"/>
<rect x="0.5" y="0.5" width="31" height="31" rx="7.5" stroke="#D9DBE0"/>
<path fill-rule="evenodd" clip-rule="evenodd" d="M12 7.25C9.37665 7.25 7.25 9.37665 7.25 12V20C7.25 22.6234 9.37665 24.75 12 24.75H20C22.6234 24.75 24.75 22.6234 24.75 20V12C24.75 9.37665 22.6234 7.25 20 7.25H12ZM8.75 12C8.75 10.2051 10.2051 8.75 12 8.75H20C21.7949 8.75 23.25 10.2051 23.25 12V20C23.25 21.7949 21.7949 23.25 20 23.25H12C10.2051 23.25 8.75 21.7949 8.75 20V12ZM13.5303 12.4697C13.3158 12.2552 12.9932 12.191 12.713 12.3071C12.4327 12.4232 12.25 12.6967 12.25 13V19C12.25 19.4142 12.5858 19.75 13 19.75C13.4142 19.75 13.75 19.4142 13.75 19V14.8107L18.4697 19.5303C18.6842 19.7448 19.0068 19.809 19.287 19.6929C19.5673 19.5768 19.75 19.3034 19.75 19V13C19.75 12.5858 19.4142 12.25 19 12.25C18.5858 12.25 18.25 12.5858 18.25 13V17.1893L13.5303 12.4697Z" fill="#8D9299"/>
</svg>
