<svg width="32" height="32" viewBox="0 0 32 32" fill="none" xmlns="http://www.w3.org/2000/svg">
<rect x="0.5" y="0.5" width="31" height="31" rx="7.5" fill="#F3F5FA"/>
<rect x="0.5" y="0.5" width="31" height="31" rx="7.5" stroke="#D9DBE0"/>
<path fill-rule="evenodd" clip-rule="evenodd" d="M7.25 12C7.25 9.37665 9.37665 7.25 12 7.25H20C22.6234 7.25 24.75 9.37665 24.75 12V20C24.75 22.6234 22.6234 24.75 20 24.75H12C9.37665 24.75 7.25 22.6234 7.25 20V12ZM12 8.75C10.2051 8.75 8.75 10.2051 8.75 12V20C8.75 21.7949 10.2051 23.25 12 23.25H20C21.7949 23.25 23.25 21.7949 23.25 20V12C23.25 10.2051 21.7949 8.75 20 8.75H12ZM13.75 18.5C13.75 18.7726 13.898 19.0238 14.1364 19.156C14.3749 19.2882 14.6663 19.2805 14.8975 19.136L18.8975 16.636C19.1168 16.4989 19.25 16.2586 19.25 16C19.25 15.7414 19.1168 15.5011 18.8975 15.364L14.8975 12.864C14.6663 12.7195 14.3749 12.7118 14.1364 12.844C13.898 12.9762 13.75 13.2274 13.75 13.5L13.75 18.5Z" fill="#8D9299"/>
</svg>
