<svg width="32" height="32" viewBox="0 0 32 32" fill="none" xmlns="http://www.w3.org/2000/svg">
<rect x="0.5" y="0.5" width="31" height="31" rx="7.5" fill="#F3F5FA"/>
<rect x="0.5" y="0.5" width="31" height="31" rx="7.5" stroke="#D9DBE0"/>
<path fill-rule="evenodd" clip-rule="evenodd" d="M17.1035 9.86299C16.4606 9.34059 15.5394 9.34059 14.8965 9.86299L9.39646 14.3317C8.98747 14.664 8.75 15.163 8.75 15.6899V21.5C8.75 22.4665 9.5335 23.25 10.5 23.25H12.75V18.5C12.75 16.7051 14.2051 15.25 16 15.25C17.7949 15.25 19.25 16.7051 19.25 18.5V23.25H21.5C22.4665 23.25 23.25 22.4665 23.25 21.5V15.6899C23.25 15.163 23.0125 14.664 22.6035 14.3317L17.1035 9.86299ZM17.75 23.25V18.5C17.75 17.5335 16.9665 16.75 16 16.75C15.0335 16.75 14.25 17.5335 14.25 18.5V23.25H17.75ZM13.9506 8.69882C15.1446 7.72865 16.8554 7.72865 18.0494 8.69882L23.5494 13.1676C24.309 13.7847 24.75 14.7113 24.75 15.6899V21.5C24.75 23.2949 23.2949 24.75 21.5 24.75H10.5C8.70507 24.75 7.25 23.2949 7.25 21.5V15.6899C7.25 14.7113 7.69102 13.7847 8.45057 13.1676L13.9506 8.69882Z" fill="#8D9299"/>
</svg>
