<svg width="32" height="32" viewBox="0 0 32 32" fill="none" xmlns="http://www.w3.org/2000/svg">
<rect x="0.5" y="0.5" width="31" height="31" rx="7.5" fill="#F3F5FA"/>
<rect x="0.5" y="0.5" width="31" height="31" rx="7.5" stroke="#D9DBE0"/>
<path fill-rule="evenodd" clip-rule="evenodd" d="M7.25 12C7.25 9.37665 9.37665 7.25 12 7.25H20C22.6234 7.25 24.75 9.37665 24.75 12V20C24.75 22.6234 22.6234 24.75 20 24.75H12C9.37665 24.75 7.25 22.6234 7.25 20V12ZM12 8.75C10.2051 8.75 8.75 10.2051 8.75 12V20C8.75 21.7949 10.2051 23.25 12 23.25H20C21.7949 23.25 23.25 21.7949 23.25 20V12C23.25 10.2051 21.7949 8.75 20 8.75H12ZM16 13.75C14.7574 13.75 13.75 14.7574 13.75 16C13.75 17.2426 14.7574 18.25 16 18.25C17.2426 18.25 18.25 17.2426 18.25 16C18.25 14.7574 17.2426 13.75 16 13.75ZM12.25 16C12.25 13.9289 13.9289 12.25 16 12.25C18.0711 12.25 19.75 13.9289 19.75 16C19.75 18.0711 18.0711 19.75 16 19.75C13.9289 19.75 12.25 18.0711 12.25 16ZM20.25 13C20.9404 13 21.5 12.4404 21.5 11.75C21.5 11.0596 20.9404 10.5 20.25 10.5C19.5596 10.5 19 11.0596 19 11.75C19 12.4404 19.5596 13 20.25 13Z" fill="#8D9299"/>
</svg>
