<svg width="32" height="32" viewBox="0 0 32 32" fill="none" xmlns="http://www.w3.org/2000/svg">
<rect x="0.5" y="0.5" width="31" height="31" rx="7.5" fill="#F3F5FA"/>
<rect x="0.5" y="0.5" width="31" height="31" rx="7.5" stroke="#D9DBE0"/>
<path fill-rule="evenodd" clip-rule="evenodd" d="M16 7.25C11.1675 7.25 7.25 11.1675 7.25 16C7.25 20.8325 11.1675 24.75 16 24.75H22C23.5188 24.75 24.75 23.5188 24.75 22V16C24.75 11.1675 20.8325 7.25 16 7.25ZM8.75 16C8.75 11.9959 11.9959 8.75 16 8.75C20.0041 8.75 23.25 11.9959 23.25 16V22C23.25 22.0601 23.2458 22.1191 23.2376 22.1769L18.25 17.1893V13.5C18.25 13.0858 17.9142 12.75 17.5 12.75C17.0858 12.75 16.75 13.0858 16.75 13.5V15.6893L14.7803 13.7197C14.4874 13.4268 14.0126 13.4268 13.7197 13.7197C13.4268 14.0126 13.4268 14.4874 13.7197 14.7803L18.1893 19.25H16C15.5858 19.25 15.25 19.5858 15.25 20C15.25 20.4142 15.5858 20.75 16 20.75H19.6893L22.1769 23.2376C22.1191 23.2458 22.0601 23.25 22 23.25H16C11.9959 23.25 8.75 20.0041 8.75 16Z" fill="#8D9299"/>
</svg>
